<?xml version="1.0" encoding="UTF-8" standalone="no"?>
<!-- Created with Inkscape (http://www.inkscape.org/) -->

<svg
   width="59.33437mm"
   height="65.02655mm"
   viewBox="0 0 59.33437 65.026551"
   version="1.1"
   id="svg1"
   xml:space="preserve"
   sodipodi:docname="applered.svg"
   inkscape:version="1.3.2 (091e20e, 2023-11-25, custom)"
   xmlns:inkscape="http://www.inkscape.org/namespaces/inkscape"
   xmlns:sodipodi="http://sodipodi.sourceforge.net/DTD/sodipodi-0.dtd"
   xmlns="http://www.w3.org/2000/svg"
   xmlns:svg="http://www.w3.org/2000/svg"><sodipodi:namedview
     id="namedview1"
     pagecolor="#ffffff"
     bordercolor="#000000"
     borderopacity="0.25"
     inkscape:showpageshadow="2"
     inkscape:pageopacity="0.0"
     inkscape:pagecheckerboard="0"
     inkscape:deskcolor="#d1d1d1"
     inkscape:document-units="mm"
     inkscape:zoom="1.3425154"
     inkscape:cx="321.78402"
     inkscape:cy="200.74258"
     inkscape:window-width="1920"
     inkscape:window-height="1001"
     inkscape:window-x="3831"
     inkscape:window-y="1066"
     inkscape:window-maximized="1"
     inkscape:current-layer="layer1" /><defs
     id="defs1" /><g
     inkscape:label="Layer 1"
     inkscape:groupmode="layer"
     id="layer1"
     transform="translate(-121.25771,-206.1197)"><path
       id="path1"
       style="fill:#ccc4ff;fill-opacity:1;stroke-width:0.132414"
       d="m 160.23048,206.12707 c -0.70662,-0.0459 -1.45521,0.13746 -1.45521,0.13746 -5.85267,0 -10.59315,4.74048 -10.59315,10.59315 v 2.11874 c 0,1.16525 0.95348,2.11873 2.11873,2.11873 h 2.11874 c 5.85267,0 10.59315,-4.74048 10.59315,-10.59315 v -2.11874 c 0,-1.16522 -1.33116,-1.79251 -2.11874,-2.11873 -0.19689,-0.0816 -0.42798,-0.12217 -0.66352,-0.13746 z m -24.14266,14.17214 c -10.10316,0 -14.83011,11.08316 -14.83011,21.18631 0,16.94893 10.5929,29.66072 21.19923,29.66072 2.18483,0 5.0454,-0.8742 6.81974,-1.49655 1.07256,-0.37076 2.23732,-0.37076 3.30987,0 1.77435,0.62235 4.6349,1.49655 6.81974,1.49655 10.59308,0 21.18579,-12.71179 21.18579,-29.66072 0,-10.10315 -4.72696,-21.18631 -14.8301,-21.18631 -3.6149,0 -7.91849,1.37744 -10.95076,2.55592 -2.48939,0.96663 -5.28327,0.96663 -7.77265,0 -3.04552,-1.19172 -7.33588,-2.55592 -10.95075,-2.55592 z"
       sodipodi:nodetypes="scsssssssssssccsssccs"
       inkscape:export-filename="applepink.svg"
       inkscape:export-xdpi="96"
       inkscape:export-ydpi="96" /></g></svg>
