<?xml version="1.0" encoding="UTF-8" standalone="no"?>
<!-- Created with Inkscape (http://www.inkscape.org/) -->

<svg
   width="55.278793mm"
   height="73.705063mm"
   viewBox="0 0 55.278794 73.705063"
   version="1.1"
   id="svg1"
   xml:space="preserve"
   sodipodi:docname="flame.svg"
   xmlns:inkscape="http://www.inkscape.org/namespaces/inkscape"
   xmlns:sodipodi="http://sodipodi.sourceforge.net/DTD/sodipodi-0.dtd"
   xmlns="http://www.w3.org/2000/svg"
   xmlns:svg="http://www.w3.org/2000/svg"><sodipodi:namedview
     id="namedview1"
     pagecolor="#ffffff"
     bordercolor="#000000"
     borderopacity="0.25"
     inkscape:showpageshadow="2"
     inkscape:pageopacity="0.0"
     inkscape:pagecheckerboard="0"
     inkscape:deskcolor="#d1d1d1"
     inkscape:document-units="mm" /><defs
     id="defs1" /><g
     id="layer1"
     transform="translate(-27.071413,-9.426616)"><path
       id="path1-23"
       style="fill:#ccc4ff;fill-opacity:1;stroke-width:0.143954"
       d="m 53.947809,9.426616 c -0.96449,0 -1.694437,0.4085451 -2.461865,1.238167 -0.623755,0.674307 -1.591471,2.00422 -2.303219,3.065963 -2.18584,3.260704 -3.685046,7.082584 -3.685046,11.070125 0,4.894453 1.943212,9.602182 5.39812,13.057085 l 5.556767,5.55625 c 1.828222,1.828211 2.864424,4.319004 2.864424,6.910172 v 0.561206 c 0,5.081591 -4.131285,9.213391 -9.212874,9.213391 -5.081587,0 -9.213391,-4.1318 -9.213391,-9.213391 V 38.016085 c 0,-1.799438 -1.4536,-3.253548 -3.253032,-3.253548 -0.863725,0 -1.698611,0.345713 -2.303218,0.95033 l -0.503845,0.503845 c -4.966431,4.966438 -7.759217,11.703605 -7.759217,18.728573 v 0.546736 c 0,15.259155 12.379973,27.639657 27.63914,27.639657 h 2.548165 c 13.862827,0 25.091487,-11.228686 25.091487,-25.091492 0,-9.716923 -3.97332,-19.01625 -10.99829,-25.724528 L 59.15886,20.68381 c -1.367562,-1.295586 -2.145088,-3.10925 -2.145088,-4.995044 v -3.19567 c 0,-1.684263 -1.381696,-3.06648 -3.065963,-3.06648 z" /></g></svg>
