<?xml version="1.0" encoding="UTF-8" standalone="no"?>
<!-- Created with Inkscape (http://www.inkscape.org/) -->

<svg
   width="59.976532mm"
   height="69.135849mm"
   viewBox="0 0 59.976532 69.135849"
   version="1.1"
   id="svg1"
   xml:space="preserve"
   sodipodi:docname="protein.svg"
   xmlns:inkscape="http://www.inkscape.org/namespaces/inkscape"
   xmlns:sodipodi="http://sodipodi.sourceforge.net/DTD/sodipodi-0.dtd"
   xmlns="http://www.w3.org/2000/svg"
   xmlns:svg="http://www.w3.org/2000/svg"><sodipodi:namedview
     id="namedview1"
     pagecolor="#ffffff"
     bordercolor="#000000"
     borderopacity="0.25"
     inkscape:showpageshadow="2"
     inkscape:pageopacity="0.0"
     inkscape:pagecheckerboard="0"
     inkscape:deskcolor="#d1d1d1"
     inkscape:document-units="mm" /><defs
     id="defs1" /><g
     id="layer1"
     transform="translate(-116.87128,-11.711222)"><path
       d="m 172.56378,11.711222 c 2.36961,0 4.28403,1.930943 4.28403,4.320992 0,8.074849 -4.05644,14.515828 -9.29101,19.795537 -3.74853,3.780866 -8.36726,7.224162 -13.02615,10.451403 l -0.3347,0.229545 c -1.59312,1.093754 -3.18624,2.174004 -4.75259,3.227241 0,0 0,0 0,0 0,0 0,0 0,0 0,0 0,0 0,0 l -0.21421,0.135031 c -0.80326,0.540129 -1.59313,1.066747 -2.383,1.606876 -2.79801,1.890429 -5.46214,3.740354 -7.93885,5.603776 h 15.86433 c -1.31199,-0.99922 -2.69092,-1.98495 -4.11001,-2.984184 l 0.93714,-0.634643 0.40163,-0.270063 c 2.02153,-1.363812 4.13677,-2.781633 6.25201,-4.266973 3.34691,2.444056 6.54655,5.036654 9.29102,7.791285 5.24794,5.293215 9.30439,11.73419 9.30439,19.809037 0,2.39004 -1.91443,4.320989 -4.28404,4.320989 -2.36961,0 -4.28404,-1.930949 -4.28404,-4.320989 h -42.84038 c 0,2.39004 -1.91443,4.320989 -4.28403,4.320989 -2.36961,0 -4.28404,-1.930949 -4.28404,-4.320989 0,-8.074847 4.05645,-14.515822 9.291,-19.795533 3.74854,-3.780873 8.36727,-7.224155 13.02616,-10.451395 -4.65889,-3.227241 -9.27762,-6.657033 -13.02616,-10.451403 -5.23455,-5.279709 -9.291,-11.720688 -9.291,-19.795537 0,-2.390048 1.91443,-4.320992 4.28404,-4.320992 2.3696,0 4.28403,1.930943 4.28403,4.320992 h 42.84038 c 0,-2.390048 1.91443,-4.320992 4.28405,-4.320992 z m -10.36202,51.85189 h -30.68443 c -1.35215,1.431323 -2.49009,2.876159 -3.41384,4.320994 h 37.5121 c -0.91035,-1.444835 -2.0483,-2.889671 -3.41383,-4.320994 z M 131.51733,28.995184 h 30.68443 c 1.35215,-1.44483 2.49009,-2.876156 3.41384,-4.320991 h -37.51211 c 0.91036,1.444835 2.0483,2.876161 3.41384,4.320991 z m 7.41674,6.481486 c 2.46333,1.863429 5.14085,3.713353 7.93886,5.60379 2.79802,-1.890437 5.46215,-3.740361 7.93887,-5.60379 h -15.86434 z"
       id="path1-7"
       style="fill:#ccc4ff;fill-opacity:1;stroke-width:0.134452" /></g></svg>
