<?xml version="1.0" encoding="UTF-8" standalone="no"?>
<!-- Created with Inkscape (http://www.inkscape.org/) -->

<svg
   width="56.96151mm"
   height="75.948685mm"
   viewBox="0 0 56.961509 75.948685"
   version="1.1"
   id="svg1"
   xml:space="preserve"
   sodipodi:docname="water.svg"
   xmlns:inkscape="http://www.inkscape.org/namespaces/inkscape"
   xmlns:sodipodi="http://sodipodi.sourceforge.net/DTD/sodipodi-0.dtd"
   xmlns="http://www.w3.org/2000/svg"
   xmlns:svg="http://www.w3.org/2000/svg"><sodipodi:namedview
     id="namedview1"
     pagecolor="#ffffff"
     bordercolor="#000000"
     borderopacity="0.25"
     inkscape:showpageshadow="2"
     inkscape:pageopacity="0.0"
     inkscape:pagecheckerboard="0"
     inkscape:deskcolor="#d1d1d1"
     inkscape:document-units="mm" /><defs
     id="defs1" /><g
     id="layer1"
     transform="translate(-123.63082,-95.15606)"><path
       d="m 152.11158,171.10474 c -15.72375,0 -28.48076,-12.75701 -28.48076,-28.48075 0,-13.52836 19.31352,-38.90887 24.71299,-45.73238 0.89003,-1.11253 2.21023,-1.73555 3.63426,-1.73555 h 0.26701 c 1.42404,0 2.74424,0.62302 3.63426,1.73555 5.39949,6.82351 24.71299,32.20402 24.71299,45.73238 0,15.72374 -12.757,28.48075 -28.48075,28.48075 z M 137.8712,144.99738 c 0,-1.30537 -1.06803,-2.37339 -2.3734,-2.37339 -1.30536,0 -2.37339,1.06802 -2.37339,2.37339 0,9.18208 7.43169,16.61377 16.61377,16.61377 1.30537,0 2.3734,-1.06802 2.3734,-2.3734 0,-1.30536 -1.06803,-2.37339 -2.3734,-2.37339 -6.5565,0 -11.86698,-5.31048 -11.86698,-11.86698 z"
       id="path1-4"
       style="fill:#ccc4ff;fill-opacity:1;stroke-width:0.148337" /></g></svg>
